<svg xmlns="http://www.w3.org/2000/svg" viewBox="0 0 64 64" fill="none" role="img" aria-labelledby="pcLogoTitle">
  <title id="pcLogoTitle">Patient Chart</title>
  <rect width="64" height="64" rx="16" fill="#0A3D40"/>
  <rect x="8" y="8" width="48" height="48" rx="12" fill="#14555A"/>
  <path d="M20 18h18a4 4 0 0 1 4 4v8.5c0 1.2-.5 2.3-1.4 3.1L32 42.2 22.4 33.6A4.2 4.2 0 0 1 21 30.5V22a4 4 0 0 1 4-4h-5z" fill="#1F7A74" opacity=".55"/>
  <rect x="18" y="16" width="28" height="36" rx="6" fill="#F3F8F7"/>
  <rect x="23" y="21" width="18" height="3.5" rx="1.75" fill="#0A3D40" opacity=".2"/>
  <rect x="23" y="28" width="12" height="2.5" rx="1.25" fill="#0A3D40" opacity=".14"/>
  <path d="M22 40.5h6.2l2.4-5.2 3.1 10.2 2.6-7.4H42" stroke="#1A8F84" stroke-width="2.6" stroke-linecap="round" stroke-linejoin="round"/>
  <circle cx="46" cy="18" r="7" fill="#2BBBAD"/>
  <path d="M46 14.2v7.6M42.2 18h7.6" stroke="#F5FFFD" stroke-width="2.2" stroke-linecap="round"/>
</svg>
